<?xml version="1.0" standalone="no"?>
<!DOCTYPE svg PUBLIC "-//W3C//DTD SVG 20010904//EN"
 "http://www.w3.org/TR/2001/REC-SVG-20010904/DTD/svg10.dtd">
<svg version="1.0" xmlns="http://www.w3.org/2000/svg"
 width="740.000000pt" height="740.000000pt" viewBox="0 0 740.000000 740.000000"
 preserveAspectRatio="xMidYMid meet">

<g transform="translate(0.000000,740.000000) scale(0.100000,-0.100000)"
fill="#000000" stroke="none">
<path d="M3715 6965 c-55 -55 -15 -155 62 -155 47 0 72 16 89 56 12 29 12 39
0 68 -17 41 -42 56 -91 56 -25 0 -43 -8 -60 -25z m122 -7 c33 -31 32 -90 -3
-117 -36 -28 -79 -27 -109 4 -73 73 37 184 112 113z"/>
<path d="M5613 6915 l37 -41 -35 -34 c-19 -18 -32 -36 -30 -39 3 -2 21 11 40
29 l35 34 38 -35 37 -34 -34 38 -35 37 34 35 c18 19 31 37 29 40 -3 3 -18 -9
-34 -25 -16 -17 -33 -30 -39 -30 -5 0 -26 15 -46 32 l-35 33 38 -40z"/>
<path d="M6125 6569 c-445 -26 -1438 -85 -2205 -130 -1130 -66 -1398 -84
-1412 -96 -9 -8 -19 -37 -22 -71 -25 -227 -246 -2323 -246 -2332 0 -7 -120
-10 -370 -10 -353 0 -370 1 -370 18 0 60 -93 67 -160 13 -22 -17 -48 -31 -59
-31 -20 0 -21 6 -21 108 l0 107 78 -3 c68 -3 81 -1 111 20 70 47 60 128 -17
128 -54 0 -142 -62 -157 -111 -4 -10 -11 -19 -17 -19 -11 0 -5 230 6 249 3 4
31 4 61 -1 101 -15 178 25 178 93 0 94 -135 67 -212 -42 l-24 -34 6 31 c3 18
8 45 11 60 3 16 -2 5 -12 -25 l-17 -53 -12 43 c-15 57 -50 108 -90 132 -28 16
-36 17 -60 5 -23 -11 -29 -21 -31 -55 -3 -36 2 -46 31 -75 22 -22 52 -39 83
-47 27 -7 55 -15 63 -17 11 -4 12 -18 7 -66 -3 -33 -6 -84 -6 -112 l0 -50 -32
54 c-18 30 -47 62 -65 73 -28 16 -36 17 -60 5 -23 -11 -29 -20 -31 -56 -3 -39
1 -47 31 -76 21 -19 55 -38 84 -45 26 -7 54 -15 61 -17 14 -4 18 -204 3 -204
-5 0 -19 15 -32 34 -25 36 -67 66 -93 66 -26 0 -56 -38 -56 -70 0 -24 -4 -30
-20 -30 -17 0 -19 3 -10 19 14 27 13 74 -2 94 -7 9 -25 19 -40 22 -36 9 -81
-34 -99 -93 -11 -38 -15 -42 -43 -41 -26 0 -38 9 -74 61 -24 33 -46 66 -48 73
-3 8 17 25 53 44 66 36 92 66 100 116 4 27 0 38 -20 59 -33 32 -48 33 -85 1
-34 -29 -62 -100 -62 -159 0 -35 -2 -38 -15 -26 -20 21 -115 181 -115 194 0 6
25 24 55 40 60 31 92 67 101 115 16 78 -71 113 -119 48 -31 -41 -38 -60 -46
-127 l-7 -55 -19 57 c-10 32 -21 56 -23 53 -2 -2 3 -25 12 -51 21 -62 21 -62
-11 -31 -34 31 -108 66 -143 67 -67 0 -97 -78 -45 -118 39 -31 88 -36 153 -16
31 10 60 18 64 19 4 0 32 -42 62 -92 30 -51 54 -93 53 -93 -1 0 -24 11 -51 25
-101 51 -182 13 -150 -70 17 -44 113 -59 194 -30 l45 16 25 -30 c14 -16 33
-43 43 -60 l18 -31 -335 0 c-185 0 -336 -3 -336 -7 0 -5 153 -8 340 -7 l341 1
19 -27 c28 -40 25 -42 -23 -14 -55 30 -119 34 -147 9 -37 -34 -20 -88 35 -111
45 -18 79 -17 143 5 l53 18 23 -46 c31 -59 76 -171 70 -171 -3 0 -18 15 -34
34 -60 68 -155 88 -186 40 -22 -32 -11 -68 29 -98 31 -23 99 -28 169 -13 l36
8 22 -67 c25 -74 21 -84 -37 -84 -43 0 -165 -26 -210 -45 -79 -33 -83 -42 -83
-191 0 -108 3 -135 15 -141 11 -7 20 -53 34 -180 21 -188 26 -202 96 -248 77
-50 165 -70 315 -70 112 0 147 4 206 22 73 23 143 67 168 105 9 14 21 84 32
183 12 120 21 167 35 187 16 23 19 46 19 152 l0 125 -32 24 c-47 36 -117 56
-248 75 -63 8 -116 16 -118 17 -1 1 5 34 15 74 l17 71 55 0 c123 1 204 78 155
148 -34 49 -130 6 -183 -83 -11 -17 -11 -15 -7 15 3 19 9 76 12 126 l7 92 57
-5 c81 -8 124 3 157 37 l28 30 362 0 c199 0 364 -3 366 -7 2 -5 -12 -151 -31
-326 -31 -285 -33 -320 -19 -334 9 -9 129 -37 323 -74 170 -33 435 -84 589
-113 154 -30 416 -80 583 -112 l302 -58 0 -32 c0 -38 20 -33 -235 -64 -222
-27 -463 -64 -650 -101 -627 -124 -823 -248 -719 -457 42 -85 133 -157 344
-273 171 -93 163 -84 99 -114 l-55 -25 -305 94 c-167 52 -538 167 -824 255
-285 89 -524 161 -531 161 -12 0 -918 -325 -934 -335 -6 -4 -10 -26 -10 -50
l0 -43 58 -20 c31 -11 352 -123 712 -250 360 -127 945 -332 1300 -457 355
-124 728 -256 828 -291 l184 -66 289 162 290 161 77 -15 c77 -14 77 -14 125
11 26 15 51 31 56 37 4 6 11 61 15 122 l6 111 -527 163 c-291 90 -570 176
-622 192 l-94 30 37 29 c70 58 52 83 -141 187 -201 110 -277 166 -319 239 -32
54 -30 120 6 158 109 116 606 240 1324 330 178 23 219 25 205 11 -2 -2 -87
-14 -189 -26 -788 -93 -1183 -236 -1131 -410 29 -97 212 -197 593 -324 90 -30
384 -121 653 -201 847 -253 1144 -354 1380 -469 138 -68 208 -123 203 -159 -4
-29 -63 -73 -153 -112 l-78 -34 -31 24 c-172 128 -579 164 -849 74 -91 -30
-198 -86 -261 -136 -187 -146 -165 -293 59 -399 246 -116 420 -109 723 32 97
45 276 156 325 203 39 35 57 73 57 116 0 30 4 38 22 43 51 13 175 83 208 117
62 64 41 139 -57 206 -163 113 -544 254 -1268 470 -825 247 -1045 318 -1225
396 -164 71 -250 135 -250 184 0 29 60 80 135 115 133 61 330 112 613 159 180
30 511 69 519 62 8 -9 -7 -78 -16 -73 -7 5 -876 -304 -902 -319 -5 -4 -9 -19
-9 -34 l0 -27 817 -217 818 -216 455 198 455 199 3 34 3 33 -305 64 c-168 36
-311 68 -317 72 -16 10 -1 289 16 295 7 3 344 -58 748 -136 l736 -141 40 20
c22 12 43 26 47 32 4 7 49 330 99 719 51 389 95 713 99 719 5 8 86 11 268 10
143 0 263 3 266 6 3 3 -117 5 -267 5 l-272 0 6 33 c3 17 43 325 90 682 46 358
120 935 166 1283 77 592 81 633 65 651 -18 20 -81 42 -117 40 -13 -1 -388 -23
-834 -50z m939 8 c20 -15 28 64 -89 -842 -19 -143 -120 -921 -225 -1730 -104
-808 -193 -1485 -198 -1504 -4 -20 -15 -37 -28 -41 -23 -9 -37 -135 195 1675
61 473 157 1219 213 1658 56 438 105 797 108 797 3 0 14 -6 24 -13z m-234
-130 c0 -2 -29 -219 -65 -482 -36 -263 -65 -482 -65 -486 0 -9 -29 -13 -210
-29 -298 -27 -692 -94 -1034 -177 l-150 -37 -55 21 c-446 167 -717 254 -1069
342 -483 121 -953 200 -1407 237 -115 9 -211 18 -212 19 -5 3 35 346 41 352 7
7 -10 6 2286 133 1864 103 1907 105 1928 108 6 1 12 1 12 -1z m-3915 -638
c724 -71 1480 -247 2178 -507 97 -37 177 -69 177 -72 0 -3 -94 -31 -208 -64
-278 -78 -941 -275 -1526 -452 -263 -80 -480 -143 -483 -141 -2 3 1 51 7 107
6 56 9 104 6 107 -3 3 -142 16 -308 29 -167 12 -304 23 -306 23 -1 1 0 18 3
39 3 20 25 228 50 462 25 234 48 442 51 462 l6 38 76 -6 c43 -3 167 -14 277
-25z m3775 -391 c0 -18 -4 -38 -8 -44 -4 -6 -45 -18 -92 -27 -241 -47 -515
-148 -900 -334 -546 -264 -1228 -740 -1876 -1311 -92 -81 -177 -155 -189 -164
-22 -17 -36 -16 -351 33 -181 28 -329 51 -330 52 -6 9 104 919 111 926 24 22
1963 598 2325 690 420 107 1005 205 1253 210 l57 1 0 -32z m-10 -78 c0 -5 -9
-71 -19 -147 -25 -176 -48 -346 -111 -813 -28 -206 -57 -420 -65 -475 -8 -55
-35 -257 -61 -450 -25 -192 -48 -352 -51 -354 -3 -4 -585 83 -1368 204 -154
24 -523 81 -820 126 -297 45 -543 85 -547 88 -11 10 308 287 592 515 466 373
884 658 1270 866 394 213 836 388 1095 435 90 17 85 17 85 5z m-3870 -602 c0
-7 -8 -70 -17 -140 l-17 -128 -50 6 c-28 4 -53 8 -54 10 -2 1 3 58 12 126 9
68 16 127 16 131 0 4 25 7 55 7 36 0 55 -4 55 -12z m208 -13 c5 -4 -15 -212
-24 -254 -5 -23 -7 -23 -82 -17 -120 11 -111 -3 -91 144 10 70 18 131 19 136
0 9 169 0 178 -9z m-179 -291 c4 -4 -38 -367 -42 -370 -6 -4 -163 20 -169 25
-4 4 2 87 14 185 l21 178 86 -7 c47 -4 88 -9 90 -11z m148 -18 c4 -3 -36 -348
-41 -362 -4 -11 -101 -2 -114 10 -2 3 5 81 17 175 11 93 21 174 21 181 0 8 16
9 58 4 31 -3 58 -7 59 -8z m-262 -372 c39 -4 79 -10 91 -14 l20 -8 -19 -159
c-10 -87 -21 -160 -23 -162 -5 -6 -192 21 -206 30 -9 6 -8 41 6 161 10 84 20
157 23 161 3 4 12 6 21 3 10 -3 49 -8 87 -12z m211 -93 c-3 -36 -11 -113 -17
-169 l-12 -104 -36 7 c-20 4 -38 9 -40 11 -4 4 27 299 34 320 1 6 19 8 40 6
l38 -4 -7 -67z m-2073 -58 c3 -16 3 -30 1 -32 -6 -6 -43 43 -37 51 10 18 31 6
36 -19z m231 -11 c22 -19 55 -35 90 -43 65 -14 64 -10 41 -145 -18 -98 -35
-132 -35 -69 0 49 -56 163 -87 178 -56 25 -103 -28 -112 -128 l-6 -60 -56 112
-55 112 52 26 c28 14 57 32 63 39 18 22 67 12 105 -22z m189 13 c-3 -8 -9 -15
-14 -15 -10 0 -12 24 -3 33 11 11 24 -3 17 -18z m-149 -311 c31 -14 56 -30 56
-36 0 -5 -8 -39 -17 -74 l-17 -65 -49 3 -50 3 -28 77 -28 77 32 20 c18 11 35
21 38 21 4 0 32 -12 63 -26z m3258 -373 c1176 -191 2141 -350 2145 -354 3 -4
-4 -93 -18 -199 -24 -201 -35 -232 -76 -222 -10 2 -360 70 -778 149 -418 80
-1181 226 -1695 325 -514 99 -1124 215 -1354 259 -231 44 -424 85 -429 90 -6
6 -3 63 7 150 9 78 16 145 16 150 0 4 10 6 23 4 12 -2 984 -160 2159 -352z
m-3242 180 c0 -5 -18 -11 -40 -13 -28 -2 -40 0 -40 9 0 8 14 13 40 13 22 0 40
-4 40 -9z m205 -13 c124 -19 225 -65 225 -103 0 -21 -46 -55 -101 -74 -162
-56 -469 -63 -654 -15 -154 40 -188 105 -78 152 87 37 283 67 283 44 0 -5 -35
-14 -77 -20 -83 -13 -160 -46 -177 -75 -9 -15 -6 -23 17 -42 49 -43 117 -57
303 -62 149 -5 181 -3 252 15 96 24 132 46 132 77 0 42 -96 80 -227 92 -40 3
-73 9 -73 13 0 21 24 21 175 -2z m-612 -177 c92 -43 177 -55 387 -55 237 1
310 14 443 82 4 2 7 -37 7 -87 0 -110 -8 -120 -120 -155 -216 -68 -590 -55
-735 27 l-40 23 -3 98 c-1 54 1 96 5 94 4 -2 30 -14 56 -27z m156 -255 c173
-33 461 -16 594 34 l49 19 -6 -52 c-3 -29 -11 -101 -17 -161 -11 -103 -14
-112 -46 -147 -113 -125 -461 -144 -646 -36 -24 15 -51 37 -60 51 -15 23 -47
233 -47 313 l0 31 48 -18 c27 -10 86 -26 131 -34z m4061 -273 c0 -21 -5 -127
-12 -237 -8 -143 -16 -202 -26 -212 -23 -24 -35 -16 -29 19 3 17 11 124 17
237 6 113 13 211 15 218 3 6 11 12 20 12 11 0 15 -11 15 -37z m-2422 -159 c20
-6 15 -11 -39 -43 -34 -20 -70 -49 -80 -66 -23 -37 -24 -96 -3 -141 27 -57
134 -145 261 -216 65 -37 144 -81 176 -99 72 -41 84 -71 41 -106 -36 -29 -67
-38 -90 -25 -15 8 -10 13 29 30 26 12 47 25 47 31 0 14 -39 39 -155 101 -251
134 -365 246 -365 360 1 51 36 107 91 144 59 40 55 38 87 30z m226 -50 c11 -4
4 -16 -30 -48 -30 -30 -44 -51 -44 -69 0 -43 66 -100 182 -156 190 -92 381
-156 1203 -401 1159 -345 1505 -502 1442 -653 -17 -39 -96 -96 -186 -132 -51
-21 -66 -24 -72 -13 -14 21 -11 24 45 41 74 24 174 92 182 124 24 92 -238 223
-834 418 -108 35 -444 138 -747 229 -711 213 -929 288 -1084 372 -131 72 -183
135 -161 197 10 30 66 97 81 97 4 0 14 -3 23 -6z m-1579 -157 l69 -23 -43 -18
c-48 -19 -47 -26 7 -42 31 -9 45 -7 77 7 44 18 46 15 -25 42 -40 15 19 4 65
-12 l50 -18 -37 -12 c-56 -18 -54 -28 5 -47 53 -16 86 -15 117 6 13 9 13 11 0
20 -11 8 -7 9 15 4 45 -10 49 -20 15 -34 -44 -18 -45 -28 -5 -39 27 -7 44 -6
70 5 19 8 35 18 35 23 0 4 11 6 25 3 36 -6 31 -17 -15 -31 -49 -15 -44 -28 14
-36 42 -7 82 5 97 28 4 6 13 5 25 -1 17 -10 15 -13 -21 -28 l-40 -17 43 -14
c39 -14 45 -13 78 6 19 12 42 21 50 21 24 0 15 -17 -16 -30 -37 -15 -32 -24
24 -40 41 -11 48 -10 85 11 29 16 44 20 52 12 7 -7 1 -14 -20 -23 -17 -7 -31
-16 -31 -20 0 -4 21 -13 46 -19 41 -10 49 -9 85 11 27 15 42 19 50 11 7 -7 1
-14 -20 -23 -17 -7 -31 -16 -31 -19 0 -4 22 -13 48 -20 49 -12 98 -3 113 21 5
7 12 7 25 0 17 -10 16 -12 -13 -24 -18 -7 -33 -15 -33 -19 0 -4 19 -11 43 -17
36 -10 48 -8 81 8 25 12 45 16 54 11 11 -6 6 -12 -22 -21 -43 -14 -38 -23 19
-39 34 -9 46 -8 79 9 24 11 45 16 54 11 10 -6 6 -11 -17 -21 -17 -7 -31 -16
-31 -20 0 -4 24 -13 53 -20 47 -11 57 -10 86 4 18 10 38 15 44 13 7 -2 0 -10
-15 -17 -16 -7 -28 -16 -28 -20 0 -4 21 -13 46 -20 39 -11 50 -11 80 3 39 19
54 21 54 8 0 -5 -11 -12 -25 -15 -37 -9 -31 -20 20 -34 39 -10 50 -10 76 4 42
21 75 14 34 -8 l-30 -16 30 -12 c56 -22 84 -23 110 -6 15 10 34 15 43 13 13
-3 11 -7 -10 -17 -16 -7 -28 -16 -28 -20 0 -4 26 -14 58 -23 54 -15 59 -15 88
2 20 12 36 16 45 10 8 -5 9 -9 3 -9 -5 0 -19 -6 -29 -14 -18 -13 -14 -16 55
-37 70 -21 75 -21 103 -6 16 10 33 17 38 17 17 0 9 -19 -11 -25 -32 -10 -23
-20 29 -34 43 -11 54 -10 81 4 33 17 58 11 27 -6 -29 -17 -19 -26 47 -44 60
-16 65 -16 90 0 31 20 51 10 22 -11 -11 -7 -18 -15 -15 -17 2 -2 36 -13 74
-24 61 -18 73 -19 97 -7 39 20 57 17 29 -5 l-24 -19 59 -17 c63 -19 111 -22
157 -10 35 9 35 -6 0 -26 -16 -9 -200 -114 -411 -234 l-383 -217 -262 90
c-309 106 -1902 659 -2227 772 -124 43 -300 104 -392 136 -93 31 -168 60 -168
64 0 4 136 56 303 115 166 60 365 132 442 161 77 29 147 53 156 53 8 1 46 -9
84 -22z m2089 -82 c116 -29 470 -120 786 -200 316 -80 583 -148 593 -151 20
-6 24 -54 5 -54 -7 0 -370 95 -806 210 -436 116 -795 210 -798 210 -2 0 -4 9
-4 20 0 11 3 20 6 20 4 0 102 -25 218 -55z m2299 -15 c-8 -9 -877 -390 -887
-390 -3 0 -6 11 -6 24 0 22 24 34 278 142 152 65 354 150 447 190 136 58 171
70 173 57 2 -8 0 -19 -5 -23z m-4126 14 c-3 -3 -12 -4 -19 -1 -8 3 -5 6 6 6
11 1 17 -2 13 -5z m-1055 -308 c675 -234 1800 -625 2098 -728 190 -66 415
-144 500 -173 85 -30 176 -61 203 -70 45 -16 47 -18 47 -56 0 -45 -6 -47 -71
-23 -24 8 -701 247 -1504 529 -803 282 -1468 517 -1477 520 -12 5 -18 18 -18
41 0 19 2 34 4 34 2 0 100 -33 218 -74z m3694 -558 c-4 -27 -14 -49 -28 -58
-23 -17 -798 -450 -804 -450 -2 0 -4 17 -4 38 l0 37 413 236 c226 130 416 237
421 238 5 0 6 -18 2 -41z m-6 -118 c0 -50 0 -50 -50 -75 l-50 -25 0 49 c0 48
2 51 43 75 23 14 45 26 50 26 4 0 7 -22 7 -50z m780 -90 c235 -29 409 -120
398 -208 -3 -20 -16 -29 -78 -52 -104 -37 -313 -145 -453 -233 -150 -95 -201
-112 -337 -112 -94 0 -113 3 -175 29 -242 102 -288 228 -135 369 176 164 479
244 780 207z m390 -263 c0 -20 -77 -89 -164 -147 -94 -63 -271 -149 -380 -185
-96 -32 -246 -53 -278 -38 -19 8 -13 11 39 16 80 8 149 36 247 101 124 80 279
165 401 218 117 51 135 56 135 35z"/>
<path d="M1055 2301 c-22 -11 -35 -20 -30 -20 6 -1 30 -7 55 -15 40 -12 50
-11 85 4 l40 18 -30 12 c-53 20 -79 21 -120 1z"/>
<path d="M913 2252 c-44 -17 -56 -32 -26 -32 26 0 123 33 123 42 0 13 -51 7
-97 -10z"/>
<path d="M995 2228 l-60 -22 88 -28 88 -28 49 21 c28 12 50 25 50 29 0 6 -86
34 -140 46 -8 1 -42 -7 -75 -18z"/>
<path d="M770 2200 l-45 -18 26 -10 c54 -21 95 -24 132 -8 21 8 37 17 37 20 0
3 -18 10 -41 16 -22 6 -46 13 -52 14 -7 2 -32 -4 -57 -14z"/>
<path d="M1195 2165 c-49 -22 -49 -23 -25 -33 59 -23 89 -24 135 -3 25 11 45
24 45 28 0 8 -80 34 -98 32 -4 0 -29 -11 -57 -24z"/>
<path d="M638 2152 c-27 -8 -48 -19 -48 -22 0 -4 26 -15 59 -25 57 -17 59 -17
107 5 l49 22 -50 18 c-60 22 -58 22 -117 2z"/>
<path d="M910 2154 l-35 -16 30 -14 c58 -25 90 -27 131 -6 l39 20 -28 11 c-52
20 -101 22 -137 5z"/>
<path d="M1343 2127 c-24 -11 -43 -24 -43 -29 0 -16 81 -29 113 -18 54 18 84
38 67 43 -99 32 -83 32 -137 4z"/>
<path d="M1068 2107 l-43 -19 28 -10 c22 -8 38 -6 68 7 21 10 39 21 39 25 0
17 -52 16 -92 -3z"/>
<path d="M498 2102 c-27 -8 -48 -18 -48 -22 0 -3 40 -19 88 -35 89 -28 89 -28
136 -10 26 10 43 21 39 25 -7 6 -119 45 -158 55 -5 2 -31 -4 -57 -13z"/>
<path d="M788 2102 c-21 -9 -38 -20 -38 -24 0 -4 25 -15 55 -23 52 -16 56 -15
102 6 l48 21 -30 13 c-53 23 -97 25 -137 7z"/>
<path d="M1485 2089 c-22 -10 -44 -20 -50 -23 -15 -7 14 -24 53 -31 24 -4 46
0 78 15 24 12 44 25 44 29 0 7 -70 33 -81 30 -2 0 -22 -9 -44 -20z"/>
<path d="M1153 2083 c-18 -9 -33 -20 -33 -23 0 -4 16 -12 36 -18 31 -9 43 -8
77 9 22 12 35 24 31 29 -19 18 -79 19 -111 3z"/>
<path d="M314 2034 c-87 -31 -88 -32 -60 -43 24 -10 41 -7 112 20 46 17 84 35
84 39 0 20 -55 14 -136 -16z"/>
<path d="M938 2053 c-46 -19 -48 -29 -9 -38 37 -8 123 31 100 46 -19 12 -48
10 -91 -8z"/>
<path d="M1270 2045 l-44 -22 37 -12 c31 -11 41 -9 77 9 23 12 40 23 38 24 -1
2 -17 8 -33 13 -25 9 -39 7 -75 -12z"/>
<path d="M1603 2047 c-24 -11 -43 -24 -43 -27 0 -4 16 -12 36 -18 32 -10 43
-8 88 15 l51 26 -30 13 c-40 18 -53 16 -102 -9z"/>
<path d="M706 2027 l-49 -23 38 -11 c33 -11 43 -9 83 11 l45 23 -33 11 c-18 7
-33 12 -34 11 -1 0 -23 -10 -50 -22z"/>
<path d="M408 2008 c-43 -17 -78 -34 -78 -39 0 -8 55 -29 76 -29 20 0 154 61
154 70 0 4 -11 11 -24 14 -13 3 -30 8 -38 10 -7 3 -48 -9 -90 -26z"/>
<path d="M1025 2018 l-40 -21 38 -13 c34 -12 42 -11 82 8 51 25 55 33 23 42
-38 10 -61 6 -103 -16z"/>
<path d="M1723 2017 c-23 -12 -43 -26 -43 -31 -1 -6 17 -15 40 -22 37 -11 47
-10 96 12 30 13 54 26 54 28 0 3 -18 10 -41 16 -22 6 -46 13 -52 15 -7 2 -31
-6 -54 -18z"/>
<path d="M1373 2013 c-18 -9 -33 -20 -33 -24 0 -4 23 -12 51 -19 44 -11 56
-10 90 5 21 10 39 21 39 24 0 7 -82 31 -103 30 -6 0 -27 -8 -44 -16z"/>
<path d="M803 1993 c-18 -9 -33 -20 -33 -24 0 -3 20 -12 44 -19 39 -11 49 -10
92 10 l49 22 -35 13 c-47 18 -78 17 -117 -2z"/>
<path d="M1140 1985 l-45 -23 28 -11 c41 -16 63 -14 110 11 l42 21 -35 13
c-47 17 -48 17 -100 -11z"/>
<path d="M520 1963 l-75 -35 35 -15 c41 -18 65 -14 150 25 65 30 65 30 37 41
-56 22 -72 20 -147 -16z"/>
<path d="M1850 1970 c-35 -18 -49 -30 -40 -33 83 -28 79 -28 138 3 31 16 55
29 52 30 -3 0 -25 6 -50 14 -43 13 -48 12 -100 -14z"/>
<path d="M1515 1968 l-40 -21 30 -13 c17 -7 38 -13 47 -14 20 0 88 31 88 40 0
6 -70 31 -81 30 -2 -1 -22 -10 -44 -22z"/>
<path d="M1257 1953 c-26 -13 -47 -25 -47 -27 0 -3 22 -12 49 -21 47 -15 50
-15 95 7 25 12 46 25 46 28 0 3 -22 13 -48 22 -47 15 -50 14 -95 -9z"/>
<path d="M938 1953 c-21 -9 -38 -19 -38 -24 0 -4 18 -14 40 -20 34 -10 46 -9
92 8 l53 21 -30 12 c-49 19 -78 20 -117 3z"/>
<path d="M655 1928 c-38 -16 -74 -33 -78 -38 -5 -4 11 -15 35 -25 l45 -16 74
32 c41 18 78 36 82 40 5 3 -13 14 -39 23 -26 9 -48 16 -48 15 -1 0 -32 -14
-71 -31z"/>
<path d="M1980 1930 c-35 -18 -50 -30 -40 -33 82 -28 85 -28 146 -1 l59 26
-35 13 c-70 24 -75 24 -130 -5z"/>
<path d="M1633 1933 c-18 -9 -33 -20 -33 -23 0 -4 19 -12 41 -19 36 -11 47
-10 80 5 22 9 39 20 39 25 0 9 -57 29 -79 28 -9 0 -31 -8 -48 -16z"/>
<path d="M1073 1912 c-58 -24 -60 -29 -16 -42 33 -10 45 -9 88 10 l50 22 -30
14 c-38 17 -41 16 -92 -4z"/>
<path d="M1393 1910 c-24 -10 -43 -23 -43 -28 0 -5 19 -14 41 -20 36 -9 48 -7
85 11 24 11 44 24 44 29 0 6 -64 28 -80 28 -3 0 -24 -9 -47 -20z"/>
<path d="M1784 1907 c-11 -5 -30 -17 -44 -25 l-25 -16 55 -16 c53 -16 56 -16
92 4 21 12 38 24 38 27 0 3 -22 12 -49 21 -34 11 -54 12 -67 5z"/>
<path d="M768 1877 c-38 -17 -68 -33 -68 -37 0 -3 163 -62 363 -131 l362 -125
79 39 c43 21 75 42 70 46 -15 13 -698 241 -719 240 -11 0 -50 -15 -87 -32z"/>
<path d="M2113 1888 c-24 -12 -43 -25 -43 -28 0 -3 19 -11 41 -17 37 -10 48
-8 96 14 61 28 59 40 -7 48 -34 4 -56 -1 -87 -17z"/>
<path d="M1165 1868 l-40 -21 50 -17 c50 -17 50 -17 100 8 l50 25 -35 13 c-50
18 -79 16 -125 -8z"/>
<path d="M1506 1869 c-42 -23 -40 -31 17 -49 35 -11 43 -10 83 11 24 13 44 27
44 30 0 7 -71 29 -91 29 -8 -1 -31 -10 -53 -21z"/>
<path d="M2241 1851 c-59 -30 -58 -32 10 -50 44 -12 49 -11 99 17 l53 30 -53
16 c-30 9 -54 16 -54 16 -1 -1 -25 -14 -55 -29z"/>
<path d="M1897 1851 c-42 -27 -41 -28 9 -45 45 -15 48 -15 85 6 22 12 39 25
39 28 0 8 -71 30 -91 29 -8 0 -26 -8 -42 -18z"/>
<path d="M1300 1826 l-44 -24 55 -17 56 -18 44 26 43 26 -29 11 c-55 21 -79
20 -125 -4z"/>
<path d="M1638 1827 c-21 -12 -38 -25 -38 -28 0 -3 22 -12 49 -21 48 -15 50
-15 95 10 50 27 50 33 -3 51 -46 15 -60 14 -103 -12z"/>
<path d="M2383 1812 c-29 -14 -53 -29 -53 -32 0 -3 27 -13 61 -23 l60 -18 50
28 c27 15 49 30 49 33 0 3 -19 11 -42 17 -24 7 -50 14 -58 17 -8 3 -39 -7 -67
-22z"/>
<path d="M2027 1811 c-42 -27 -42 -28 14 -46 52 -18 53 -18 96 5 48 26 47 31
-13 48 -53 15 -63 14 -97 -7z"/>
<path d="M1443 1787 c-24 -11 -43 -24 -43 -27 0 -4 18 -12 40 -19 36 -10 44
-9 87 13 47 24 47 24 23 34 -53 20 -66 20 -107 -1z"/>
<path d="M1778 1784 c-27 -13 -48 -26 -48 -28 0 -2 21 -11 46 -20 44 -15 47
-15 95 9 27 14 49 28 49 30 0 3 -10 9 -22 14 -55 20 -74 19 -120 -5z"/>
<path d="M2173 1768 c-18 -11 -33 -24 -33 -28 0 -5 23 -15 51 -24 50 -14 53
-14 90 10 22 13 39 26 39 28 0 4 -104 37 -112 35 -1 0 -18 -10 -35 -21z"/>
<path d="M2533 1764 c-24 -14 -41 -29 -38 -34 2 -4 47 -20 100 -35 l96 -29 56
28 c30 15 53 29 50 32 -7 7 -197 64 -211 64 -6 -1 -30 -12 -53 -26z"/>
<path d="M1563 1747 c-24 -11 -43 -24 -43 -28 0 -4 21 -14 46 -23 45 -15 47
-15 97 11 l52 26 -35 12 c-67 23 -75 23 -117 2z"/>
<path d="M1907 1743 c-26 -15 -44 -30 -40 -33 5 -4 30 -15 57 -24 49 -16 50
-16 93 9 24 14 43 29 43 34 0 4 -18 13 -41 20 -23 7 -46 14 -53 17 -6 2 -32
-8 -59 -23z"/>
<path d="M2312 1720 c-18 -11 -31 -24 -28 -29 3 -4 25 -14 49 -21 40 -11 49
-10 86 9 22 12 41 25 41 30 0 8 -75 31 -102 31 -7 0 -28 -9 -46 -20z"/>
<path d="M1691 1696 c-47 -25 -47 -27 13 -46 34 -11 43 -10 87 11 27 12 49 25
49 29 0 8 -70 30 -91 30 -8 -1 -34 -11 -58 -24z"/>
<path d="M2050 1694 l-44 -28 39 -17 c55 -24 69 -23 123 8 l46 27 -33 13 c-62
26 -84 25 -131 -3z"/>
<path d="M2784 1687 l-59 -30 55 -19 55 -19 52 28 c29 15 53 31 53 34 0 3 -22
12 -48 21 -48 15 -49 15 -108 -15z"/>
<path d="M2458 1678 c-21 -12 -38 -25 -38 -28 0 -4 33 -17 73 -29 l73 -23 42
21 c23 12 42 25 42 30 0 7 -133 52 -150 51 -3 0 -22 -10 -42 -22z"/>
<path d="M1825 1653 l-50 -26 59 -20 58 -19 49 23 c27 12 49 25 49 29 0 5 -99
41 -111 40 -2 -1 -26 -13 -54 -27z"/>
<path d="M2197 1651 c-26 -14 -47 -28 -47 -31 0 -3 61 -26 135 -50 l134 -44
51 24 c28 13 53 27 56 31 4 6 -51 25 -242 84 -37 12 -44 11 -87 -14z"/>
<path d="M2926 1644 c-27 -14 -45 -29 -40 -34 5 -5 31 -15 57 -22 46 -12 51
-11 103 17 l55 30 -28 12 c-61 25 -96 24 -147 -3z"/>
<path d="M1536 1616 l-79 -43 48 -16 47 -16 81 41 82 41 -30 12 c-63 26 -69
25 -149 -19z"/>
<path d="M2640 1615 c-31 -16 -40 -25 -30 -29 90 -34 93 -35 144 -9 53 27 52
34 -10 51 -53 15 -51 15 -104 -13z"/>
<path d="M1972 1603 c-24 -14 -42 -27 -40 -28 2 -1 81 -28 176 -60 l173 -58
49 23 c28 13 50 27 50 30 0 7 -339 120 -356 120 -5 -1 -28 -12 -52 -27z"/>
<path d="M3075 1598 l-60 -32 73 -23 73 -23 62 32 62 32 -60 18 c-33 10 -67
20 -75 23 -8 2 -42 -10 -75 -27z"/>
<path d="M1660 1571 l-75 -39 36 -15 c72 -30 74 -30 160 14 l83 41 -49 19
c-28 11 -57 19 -65 18 -8 0 -49 -17 -90 -38z"/>
<path d="M2796 1577 c-21 -12 -38 -26 -36 -32 1 -5 23 -16 48 -23 42 -13 49
-12 94 9 26 12 48 26 48 30 0 3 -20 12 -44 18 -24 6 -50 13 -57 16 -8 2 -32
-5 -53 -18z"/>
<path d="M2512 1551 c-29 -14 -52 -28 -52 -33 0 -4 24 -15 54 -24 l53 -17 52
28 c28 16 51 31 51 34 0 3 -24 13 -53 22 -53 15 -55 15 -105 -10z"/>
<path d="M3247 1541 c-53 -31 -53 -32 14 -50 43 -12 50 -11 98 13 28 15 51 30
51 35 0 9 -69 31 -96 30 -11 0 -41 -13 -67 -28z"/>
<path d="M1813 1523 c-40 -21 -73 -40 -73 -43 0 -4 23 -14 51 -23 l52 -16 76
44 75 44 -29 11 c-59 22 -79 20 -152 -17z"/>
<path d="M2930 1523 l-45 -27 74 -23 74 -22 48 25 c27 13 49 26 49 29 0 5
-127 45 -144 45 -6 0 -31 -12 -56 -27z"/>
<path d="M2653 1502 c-29 -14 -53 -29 -53 -32 0 -3 25 -13 56 -22 56 -17 57
-17 104 7 27 14 51 28 54 33 4 7 -89 44 -105 41 -2 0 -28 -12 -56 -27z"/>
<path d="M3398 1504 c-27 -13 -48 -28 -48 -33 0 -4 26 -16 58 -25 l59 -18 51
26 c28 14 53 30 56 34 4 8 -99 43 -121 42 -5 -1 -29 -12 -55 -26z"/>
<path d="M1943 1477 c-46 -27 -68 -44 -60 -49 7 -4 54 -22 106 -39 l94 -32 78
39 c44 21 79 41 79 45 0 7 -208 80 -220 78 -3 -1 -37 -19 -77 -42z"/>
<path d="M2363 1478 c-24 -12 -43 -25 -43 -29 0 -5 24 -15 53 -25 l53 -16 54
27 55 28 -35 15 c-57 23 -92 23 -137 0z"/>
<path d="M3117 1474 c-26 -14 -45 -29 -42 -34 3 -5 29 -14 58 -20 48 -11 57
-10 95 9 23 12 42 25 42 30 0 4 -18 13 -41 20 -23 7 -46 14 -53 16 -6 2 -33
-7 -59 -21z"/>
<path d="M2796 1454 c-26 -14 -44 -29 -40 -33 12 -11 103 -41 124 -41 9 0 40
13 69 29 l53 29 -63 21 c-78 26 -83 26 -143 -5z"/>
<path d="M3558 1453 c-27 -14 -48 -29 -48 -33 0 -4 31 -16 69 -28 l70 -21 56
31 c31 17 53 34 48 38 -9 9 -115 40 -135 40 -7 0 -34 -12 -60 -27z"/>
<path d="M2508 1426 c-21 -11 -38 -24 -38 -28 0 -4 24 -14 53 -23 52 -17 52
-17 100 10 52 29 51 36 -2 54 -46 15 -69 13 -113 -13z"/>
<path d="M3268 1430 c-20 -11 -39 -24 -42 -29 -3 -5 20 -18 53 -29 l58 -20 47
26 c25 14 46 28 46 32 0 6 -99 40 -116 40 -5 -1 -26 -10 -46 -20z"/>
<path d="M2198 1391 c-36 -20 -69 -39 -72 -42 -3 -3 19 -14 49 -24 l55 -19 80
39 c44 21 80 42 80 46 0 9 -88 39 -109 38 -9 -1 -46 -17 -83 -38z"/>
<path d="M2977 1399 c-31 -16 -57 -31 -57 -33 0 -2 27 -13 60 -24 l60 -21 55
32 c30 17 52 34 47 38 -4 4 -30 14 -57 22 -49 14 -52 14 -108 -14z"/>
<path d="M3741 1399 c-29 -17 -49 -34 -45 -39 5 -4 40 -17 79 -28 l69 -21 58
32 c32 17 54 34 50 38 -6 5 -143 49 -154 49 -1 0 -27 -14 -57 -31z"/>
<path d="M2662 1382 c-28 -15 -52 -29 -52 -32 0 -3 30 -16 66 -27 l67 -22 56
29 c37 19 51 30 41 34 -8 3 -40 14 -70 25 l-55 18 -53 -25z"/>
<path d="M3423 1377 c-24 -11 -43 -24 -43 -28 0 -4 31 -18 69 -30 l69 -22 47
27 c26 16 43 32 38 36 -9 9 -111 40 -127 39 -6 0 -30 -10 -53 -22z"/>
<path d="M2351 1345 c-36 -19 -69 -39 -74 -44 -6 -6 12 -16 45 -26 l54 -17 84
42 85 43 -35 15 c-66 27 -91 25 -159 -13z"/>
<path d="M3130 1351 c-25 -15 -44 -32 -42 -37 1 -5 26 -17 54 -26 l51 -18 58
32 c32 18 55 35 51 39 -6 6 -116 40 -124 38 -1 0 -23 -13 -48 -28z"/>
<path d="M2825 1320 c-49 -28 -49 -29 -24 -38 92 -36 104 -36 158 -7 28 16 48
31 44 35 -8 7 -110 40 -122 40 -3 0 -28 -14 -56 -30z"/>
<path d="M3598 1322 c-26 -15 -48 -29 -48 -32 0 -3 36 -16 80 -29 85 -25 105
-23 159 18 l25 19 -83 26 c-45 14 -83 26 -84 25 -1 0 -23 -12 -49 -27z"/>
<path d="M2483 1290 c-40 -22 -73 -43 -73 -45 0 -2 30 -14 68 -26 l67 -21 85
42 85 43 -41 18 c-80 36 -111 34 -191 -11z"/>
<path d="M3282 1298 c-29 -17 -50 -34 -45 -38 4 -3 35 -15 69 -24 l61 -18 51
26 c28 14 53 30 56 35 5 7 -119 53 -136 50 -1 0 -27 -14 -56 -31z"/>
<path d="M3015 1286 c-11 -7 -33 -21 -49 -31 l-29 -18 49 -18 c27 -11 57 -19
67 -19 25 0 110 51 100 60 -8 8 -102 40 -112 39 -3 0 -15 -6 -26 -13z"/>
<path d="M2662 1236 c-45 -22 -82 -43 -82 -46 0 -3 64 -27 143 -54 l143 -50
77 43 c42 23 77 46 77 49 0 4 -62 28 -138 53 l-138 46 -82 -41z"/>
<path d="M3475 1254 c-88 -47 -88 -44 4 -75 l83 -28 59 32 c32 18 59 34 59 37
0 6 -143 50 -162 50 -7 -1 -26 -8 -43 -16z"/>
<path d="M3143 1219 c-29 -17 -53 -32 -53 -34 0 -2 30 -13 67 -26 l66 -22 53
29 c30 16 54 32 54 35 0 3 -26 13 -57 23 -32 10 -62 20 -68 22 -5 2 -34 -10
-62 -27z"/>
<path d="M3308 1162 c-27 -15 -48 -29 -48 -32 0 -3 37 -18 82 -33 l82 -26 53
30 c30 17 52 33 50 35 -6 6 -149 54 -161 54 -6 0 -32 -13 -58 -28z"/>
<path d="M2987 1131 c-38 -21 -73 -43 -77 -47 -6 -6 17 -19 53 -32 l63 -22 75
40 c41 23 78 45 82 49 7 7 -103 52 -122 51 -3 -1 -37 -18 -74 -39z"/>
<path d="M3133 1067 c-40 -23 -69 -44 -65 -48 4 -4 42 -18 84 -32 l78 -26 81
46 c64 37 77 48 65 55 -31 17 -129 48 -150 47 -12 -1 -53 -20 -93 -42z"/>
<path d="M4238 915 c-48 -27 -47 -75 3 -100 82 -43 190 29 131 87 -26 26 -98
33 -134 13z m125 -24 c19 -18 19 -21 4 -44 -20 -31 -59 -41 -103 -27 -40 14
-56 37 -42 63 21 41 104 45 141 8z"/>
<path d="M838 6500 l52 -56 -50 -49 c-27 -27 -47 -51 -45 -54 3 -3 28 17 55
44 l50 49 53 -49 52 -50 -50 53 -49 52 54 55 c30 30 50 55 44 55 -5 0 -32 -23
-59 -50 l-49 -50 -56 52 -55 53 53 -55z"/>
<path d="M866 5795 c-20 -18 -26 -34 -26 -65 0 -56 34 -90 90 -90 56 0 90 34
90 90 0 82 -93 122 -154 65z m118 -6 c57 -45 21 -139 -55 -139 -71 0 -105 85
-54 135 30 31 73 32 109 4z"/>
<path d="M7047 5479 c-27 -16 -50 -68 -42 -98 28 -113 185 -93 185 24 0 39
-50 85 -92 85 -18 0 -41 -5 -51 -11z m107 -25 c32 -33 34 -74 4 -108 -39 -43
-107 -36 -133 14 -19 37 -11 74 22 100 36 28 75 25 107 -6z"/>
<path d="M2050 5452 c0 -7 4 -12 9 -12 5 0 19 -14 32 -31 l21 -31 -33 -34
c-41 -42 -27 -45 17 -3 l32 31 38 -33 39 -33 -34 37 -35 37 34 35 c18 19 31
37 29 40 -3 2 -21 -11 -39 -30 l-34 -35 -38 37 c-21 20 -38 32 -38 25z"/>
<path d="M1511 5021 c-36 -34 -70 -104 -71 -144 0 -27 2 -28 33 -22 98 22 157
70 157 129 0 67 -65 87 -119 37z"/>
<path d="M455 4990 c-27 -29 -31 -116 -10 -180 l17 -52 40 39 c47 44 68 88 68
138 0 66 -74 101 -115 55z"/>
<path d="M1184 4865 c-36 -55 4 -126 104 -184 82 -47 145 -62 207 -49 106 23
114 144 9 140 -36 -1 -116 -41 -131 -65 -4 -6 -15 -18 -24 -25 -15 -11 -16 -7
-15 41 1 94 -42 167 -101 167 -24 0 -37 -7 -49 -25z"/>
<path d="M568 4740 c-24 -15 -56 -71 -74 -129 -13 -46 -34 -62 -34 -26 0 21
-97 103 -131 110 -75 17 -108 -64 -48 -121 29 -27 36 -29 128 -32 84 -3 106
-1 150 18 65 29 111 79 111 124 0 54 -54 84 -102 56z"/>
<path d="M1306 4605 c-9 -26 -7 -32 5 -12 6 10 9 21 6 23 -2 3 -7 -2 -11 -11z"/>
<path d="M492 4500 c0 -14 2 -19 5 -12 2 6 2 18 0 25 -3 6 -5 1 -5 -13z"/>
<path d="M501 4454 c0 -11 3 -14 6 -6 3 7 2 16 -1 19 -3 4 -6 -2 -5 -13z"/>
<path d="M1794 2800 c-39 -16 -66 -61 -60 -100 12 -78 101 -106 157 -51 48 48
31 128 -32 150 -37 13 -37 13 -65 1z m95 -36 c35 -45 20 -104 -31 -125 -57
-23 -128 30 -114 85 17 68 104 92 145 40z"/>
<path d="M5630 2104 c0 -6 14 -23 30 -39 l30 -29 -30 -31 c-42 -43 -38 -56 5
-15 l35 34 35 -34 c19 -19 35 -29 35 -24 0 6 -14 23 -30 39 l-30 29 30 31 c42
43 38 56 -5 15 l-35 -34 -35 34 c-19 19 -35 29 -35 24z"/>
<path d="M6559 2071 c-21 -22 -29 -39 -29 -66 0 -48 44 -95 89 -95 47 0 95 48
95 95 0 30 -7 44 -32 66 -43 39 -84 38 -123 0z m124 -12 c38 -47 11 -123 -49
-135 -64 -12 -121 76 -81 127 34 43 97 47 130 8z"/>
<path d="M6665 1073 l49 -53 -49 -50 c-27 -27 -47 -52 -44 -55 3 -2 27 18 54
45 l49 50 56 -52 55 -53 -53 55 -52 56 50 49 c27 27 47 51 45 54 -3 3 -28 -17
-55 -44 l-50 -49 -52 49 -53 50 50 -52z"/>
<path d="M1350 825 c0 -5 14 -24 32 -42 l32 -33 -35 -37 -34 -38 38 34 37 35
35 -34 c19 -18 37 -31 40 -29 2 3 -11 21 -30 39 l-35 34 37 41 38 40 -40 -37
-41 -38 -37 37 c-20 21 -37 33 -37 28z"/>
<path d="M3139 495 c-81 -44 -47 -175 46 -175 94 0 128 132 44 175 -35 18 -56
18 -90 0z m109 -31 c12 -14 22 -36 22 -50 0 -34 -51 -84 -85 -84 -33 0 -85 50
-85 82 0 13 7 34 16 46 33 48 92 50 132 6z"/>
</g>
</svg>
